<svg width="18" height="18" viewBox="0 0 18 18" fill="none" xmlns="http://www.w3.org/2000/svg">
<path fill-rule="evenodd" clip-rule="evenodd" d="M16.5 0H1.5C0.660034 0 0 0.659988 0 1.50001V16.5C0 17.34 0.660034 18 1.5 18H8.40002H12H16.5C17.34 18 18 17.34 18 16.5V1.50001C18 0.659988 17.34 0 16.5 0ZM9.05188 11.2609H6.80005V8.96521H9.05188V6.95653C9.05188 5.32088 10.2904 3.94349 11.8667 3.8H14.4V6.09566H12.1482C11.6697 6.09566 11.3037 6.46869 11.3037 6.95653V8.96521H14.1185V11.2609H11.3038V17.2H9.05188V11.2609ZM11.9286 17.2H16.3215C16.8193 17.2 17.2001 16.8193 17.2001 16.3214V1.67857C17.2001 1.1807 16.8193 0.8 16.3215 0.8H1.67859C1.18079 0.8 0.800049 1.1807 0.800049 1.67857V16.3214C0.800049 16.8193 1.18079 17.2 1.67859 17.2L8.41431 17.2V11.9286H6.07141V8.41427H8.41431V6.94997C8.41431 4.98784 9.93726 3.31855 11.8993 3.14284H15.15V6.65713H12.2214C12.0458 6.65713 11.9286 6.77426 11.9286 6.94997V8.41427H14.8572V11.9286H11.9286V17.2Z" fill="white"/>
</svg>
