<svg width="18" height="18" viewBox="0 0 18 18" fill="none" xmlns="http://www.w3.org/2000/svg">
<path fill-rule="evenodd" clip-rule="evenodd" d="M13.0326 0H4.96729C2.22827 0 0 2.22841 0 4.96735V13.0326C0 15.7717 2.22827 18 4.96729 18H13.0326C15.7717 18 18 15.7716 18 13.0326V4.96735C18.0001 2.22841 15.7717 0 13.0326 0ZM17.0001 13.3579C17.0001 15.3662 15.3662 17 13.3579 17H4.64197C2.63379 17.0001 1 15.3662 1 13.3579V4.64212C1 2.63392 2.63379 1 4.64197 1H13.3578C15.3661 1 17 2.63392 17 4.64212L17.0001 13.3579ZM4.36182 9.00021C4.36182 6.4427 6.4425 4.36207 9 4.36207C11.5575 4.36207 13.6381 6.4427 13.6381 9.00021C13.6381 11.5576 11.5575 13.6381 9 13.6381C6.4425 13.6381 4.36182 11.5576 4.36182 9.00021ZM13.4349 2.83418C13.5833 2.68509 13.7898 2.6 14 2.6C14.2109 2.6 14.4175 2.68509 14.5658 2.83418C14.7149 2.98255 14.8 3.18909 14.8 3.4C14.8 3.61018 14.7149 3.81673 14.5658 3.96582C14.4167 4.11418 14.2109 4.2 14 4.2C13.7898 4.2 13.5833 4.11418 13.4349 3.96582C13.2858 3.81673 13.2 3.61025 13.2 3.4C13.2 3.18909 13.2857 2.98255 13.4349 2.83418Z" fill="white"/>
</svg>
