<svg width="18" height="16" viewBox="0 0 18 16" fill="none" xmlns="http://www.w3.org/2000/svg">
<path fill-rule="evenodd" clip-rule="evenodd" d="M17.5303 2.09487C17.6525 2.06362 17.8053 2.09487 17.8969 2.1886C17.9885 2.28233 18.019 2.43856 17.9885 2.56358C17.7136 3.46975 17.1637 4.12596 16.4915 4.46969V4.56342C16.4915 10.5942 12.092 15.5 6.71484 15.5C3.69019 15.5 1.24609 14.9688 0.14624 14.0626C0.0239258 13.9376 -0.0371094 13.7814 0.0239258 13.5939C0.085083 13.4377 0.237793 13.3127 0.421143 13.3127C2.22375 13.2814 3.38464 12.844 4.27063 12.3127C2.55981 12.094 1.49048 11.2503 0.940552 9.6567C0.879395 9.50047 0.940552 9.34427 1.06274 9.2505C1.18494 9.15674 1.36829 9.15674 1.49048 9.21925C1.94873 9.53172 2.40698 9.59423 2.95691 9.59423C1.7959 8.87555 0.726685 7.68813 0.29895 6.21952C0.268311 6.06328 0.329468 5.87582 0.45166 5.81331C0.60437 5.71959 0.757202 5.75084 0.879395 5.84457C1.21545 6.12579 1.58215 6.31328 2.13208 6.40701C0.940552 5.15711 0.207275 3.31352 1.24597 1.28243L1.42932 0.907444L1.73474 1.21992C3.62903 3.25101 5.37048 4.18843 8.54797 4.81338V4.6884C8.54797 2.40735 10.2894 0.532496 12.4586 0.501242C13.314 0.501242 14.5055 1.12619 14.9944 1.40741C15.006 1.40741 15.0177 1.41197 15.0277 1.41586C15.0438 1.42216 15.0555 1.42674 15.0555 1.40741C15.6665 1.21996 16.3998 0.907481 17.2552 0.532496C17.3774 0.470023 17.5303 0.501278 17.6218 0.595006C17.7136 0.68877 17.7441 0.813753 17.683 0.96999C17.5303 1.40745 17.2859 1.87616 16.9192 2.31362L17.5303 2.09487ZM15.7355 4.23772L15.9133 4.17735C16.4764 3.96612 16.8025 3.51342 17.01 3.12114L15.854 3.51346C15.7058 3.57383 15.528 3.51346 15.4688 3.36256C15.4094 3.21166 15.4391 3.03058 15.5576 2.94005C16.0319 2.5477 16.3876 2.12519 16.6543 1.6725C16.0615 1.91392 15.528 2.12519 15.0834 2.27609C14.9055 2.33643 14.7277 2.30624 14.5498 2.21572L14.5314 2.20549C14.1835 2.01201 13.0852 1.4014 12.4158 1.43104C10.6373 1.46123 9.2146 3.00039 9.2146 4.8715V5.71651L8.85901 5.65614C5.59851 5.05255 3.79053 4.17735 1.89355 2.27606C1.00427 4.56971 2.84204 6.16921 3.46448 6.6219L4.20544 7.16515H3.28662C2.69373 7.16515 2.04175 7.10478 1.44885 6.83317C2.10095 8.2214 3.43481 9.2475 4.56116 9.57948L4.47217 10.1831C4.23511 10.1831 3.99792 10.1831 3.76086 10.2133C3.13843 10.2434 2.5752 10.2434 2.04175 10.0624C2.63452 11.2092 3.672 11.692 5.36145 11.692H6.25061L5.50964 12.2353C4.59082 12.9596 3.40515 13.6235 1.35999 13.7744C2.33813 14.2573 4.14612 14.71 6.84338 14.71C11.4647 14.71 15.7355 9.99899 15.7355 4.75079V4.23772Z" fill="white"/>
</svg>
